<svg width="127" height="51" viewBox="0 0 127 51" fill="none" xmlns="http://www.w3.org/2000/svg">
<path d="M46.2956 30.1128L39.3717 25.6066L46.2956 21.1003C47.7589 20.1412 48.9808 18.8167 49.8104 17.2791C50.6401 15.7263 51.0927 13.9907 51.0927 12.2248C51.0927 8.99732 49.6747 5.98299 47.1102 3.92776C45.2397 2.4206 42.9015 1.64418 40.5181 1.64418H27.3339C24.1359 1.64418 21.0133 2.28358 18.0868 3.53194C15.2659 4.73463 12.7166 6.47015 10.5444 8.66239C8.37213 10.8699 6.65245 13.4275 5.46074 16.2743C4.22378 19.2278 3.59021 22.3639 3.59021 25.6066C3.59021 28.834 4.22378 31.9854 5.46074 34.9388C6.65245 37.7857 8.37213 40.3585 10.5444 42.5508C12.7317 44.7582 15.2659 46.4785 18.0868 47.6812C21.0133 48.9296 24.1208 49.569 27.3339 49.569H40.6086C43.3993 49.569 46.0392 48.4728 48.0153 46.4785C49.9914 44.4842 51.0776 41.8352 51.0776 39.0036C51.0776 37.2376 50.6401 35.4869 49.7953 33.9493C48.9808 32.3964 47.7589 31.0719 46.2956 30.1128ZM40.5935 45.154H27.349C24.7393 45.154 22.205 44.6364 19.8065 43.6164C17.4985 42.6269 15.4319 41.2263 13.6519 39.4299C11.8718 37.6334 10.4689 35.5478 9.5035 33.2185C8.49281 30.8131 7.97992 28.2555 7.97992 25.6066C7.97992 22.9728 8.49281 20.4152 9.5035 17.9946C10.484 15.6654 11.8718 13.5797 13.6519 11.7833C15.4319 9.98687 17.4985 8.57105 19.8065 7.59672C22.1899 6.57672 24.7242 6.05911 27.349 6.05911H40.5935C43.1731 6.05911 45.8733 8.09911 46.5068 10.611C47.1857 13.2905 46.0995 15.9546 43.9273 17.3705L35.344 22.9576L29.2044 18.9537C29.0988 18.8928 28.9932 18.8319 28.8876 18.7863C26.6098 17.7815 24.0001 18.0099 21.9184 19.38C19.8367 20.7502 18.5997 23.0794 18.5997 25.5913C18.5997 28.1033 19.8367 30.4173 21.9184 31.8027C24.0001 33.1728 26.6098 33.4012 28.8876 32.3964C28.9932 32.3508 29.0988 32.2899 29.2044 32.229L35.344 28.2251L43.9273 33.8122C46.1146 35.2281 47.1857 37.8922 46.5068 40.5716C45.8733 43.114 43.1731 45.154 40.5935 45.154ZM27.5752 28.0424L27.4244 28.1337C26.7456 28.5752 25.9008 28.7275 25.1164 28.4991C24.7393 28.3925 24.3772 28.1946 24.0454 27.9206C23.442 27.4182 23.0498 26.7027 22.9894 25.911C22.8838 24.754 23.3816 23.7188 24.3169 23.0946C24.8147 22.7597 25.3728 22.5922 25.931 22.5922H25.9461C26.4288 22.5922 26.8964 22.7293 27.2886 22.9881L27.5602 23.1708C29.31 24.3278 29.31 26.9006 27.5752 28.0424Z" fill="white"/>
<path d="M68.5766 12.5749C69.6778 12.5749 70.6734 12.3161 71.5785 11.7833C72.4836 11.2505 73.1624 10.5502 73.6451 9.69762V6.53105H68.5615V8.41881H71.488V9.28657C70.8695 10.1696 69.9342 10.611 68.6973 10.611C67.6413 10.611 66.7815 10.2761 66.1479 9.60627C65.4993 8.93642 65.1825 8.08389 65.1825 7.03344C65.1825 6.01344 65.4842 5.17612 66.1177 4.50627C66.7513 3.83642 67.5659 3.51672 68.5766 3.51672C69.7985 3.51672 70.779 4.03433 71.5332 5.08478L73.0719 3.80598C72.0009 2.26836 70.5075 1.44627 68.5917 1.44627C67.0078 1.44627 65.6501 1.97911 64.564 3.04478C63.4779 4.11045 62.9197 5.41971 62.9197 7.00299C62.9197 8.57105 63.4628 9.8803 64.564 10.9612C65.6501 12.0421 66.9927 12.5749 68.5766 12.5749Z" fill="white"/>
<path d="M82.3184 10.3675H77.6874V1.64418H75.5151V12.3466H82.3184V10.3675Z" fill="white"/>
<path d="M88.6843 12.5749C90.238 12.5749 91.5806 12.0421 92.6818 10.9764C93.783 9.91076 94.3411 8.6015 94.3411 7.01822C94.3411 5.45016 93.7981 4.14091 92.6818 3.06001C91.5806 1.99434 90.238 1.4615 88.6843 1.4615C87.1306 1.4615 85.788 1.99434 84.7019 3.06001C83.6158 4.12568 83.0576 5.43494 83.0576 7.01822C83.0576 8.58628 83.6007 9.89553 84.7019 10.9764C85.8031 12.0421 87.1306 12.5749 88.6843 12.5749ZM86.2405 4.49105C86.8892 3.8212 87.7038 3.5015 88.6843 3.5015L88.7145 3.48628C89.695 3.48628 90.4945 3.80598 91.1431 4.47583C91.7918 5.14568 92.1086 5.983 92.1086 7.003C92.1086 8.023 91.7918 8.86031 91.1431 9.53016C90.4945 10.2 89.6799 10.5197 88.6994 10.5197C87.7038 10.5197 86.8892 10.2 86.2405 9.54538C85.5919 8.89076 85.2751 8.05344 85.2751 7.01822C85.2751 5.99822 85.5919 5.14568 86.2405 4.49105Z" fill="white"/>
<path d="M102.502 6.57672V6.5615C103.03 6.05911 103.286 5.41971 103.286 4.62807C103.286 3.7603 102.97 3.04478 102.336 2.4815C101.718 1.93344 100.903 1.65941 99.9225 1.65941H96.1664V12.3466H100.888C101.914 12.3466 102.743 12.0573 103.392 11.4788C104.041 10.9003 104.357 10.1391 104.357 9.21045C104.357 8.58627 104.192 8.02299 103.875 7.5815C103.558 7.12478 103.09 6.78986 102.502 6.57672ZM98.2481 3.54717H99.7566C100.194 3.54717 100.526 3.65374 100.767 3.86687C101.009 4.08001 101.114 4.36926 101.114 4.73463C101.114 5.10001 100.994 5.41971 100.737 5.64806C100.496 5.87642 100.164 5.98299 99.7264 5.98299H98.233V3.54717H98.2481ZM101.823 10.1239C101.552 10.3675 101.175 10.474 100.722 10.474H98.2481V7.79463H100.722C101.19 7.79463 101.552 7.91642 101.823 8.17523C102.095 8.41881 102.231 8.73851 102.231 9.14956C102.215 9.5606 102.095 9.8803 101.823 10.1239Z" fill="white"/>
<path d="M107.887 10.946H112.217L112.805 12.3314H115.128L110.422 1.4615H109.698L104.961 12.3466H107.284L107.887 10.946ZM110.06 5.55673L111.463 9.14956H108.672L110.06 5.55673Z" fill="white"/>
<path d="M118.749 10.3675V1.64418H116.591V12.3466H123.395V10.3675H118.749Z" fill="white"/>
<path d="M73.2373 28.5296L71.593 27.3573C70.8388 28.56 69.8281 29.1537 68.561 29.1537C67.5654 29.1537 66.7508 28.834 66.1021 28.1794C65.4535 27.5248 65.1367 26.6875 65.1367 25.6675C65.1367 24.6322 65.4535 23.7949 66.1021 23.1251C66.7508 22.4552 67.5654 22.1355 68.561 22.1355C69.8281 22.1355 70.8388 22.7293 71.593 23.9319L73.2373 22.7597C72.7696 21.9376 72.1361 21.283 71.3064 20.8111C70.4918 20.3391 69.5716 20.0346 68.561 20.0346C66.977 20.0346 65.6345 20.5675 64.5484 21.6331C63.4623 22.6988 62.9041 24.0081 62.9041 25.5914C62.9041 27.1594 63.4472 28.4687 64.5484 29.5496C65.6345 30.6152 66.977 31.1481 68.561 31.1481C69.5716 31.1481 70.4918 30.9197 71.3064 30.4478C72.1361 30.0063 72.7696 29.3669 73.2373 28.5296Z" fill="white"/>
<path d="M74.082 22.2269H77.4761V30.9501H79.6484V22.2269H83.0425V20.263H74.082V22.2269Z" fill="white"/>
<path d="M89.2424 31.1785C90.7961 31.1785 92.1387 30.6457 93.2399 29.58C94.3411 28.5143 94.8992 27.2051 94.8992 25.6218C94.8992 24.0537 94.3562 22.7445 93.2399 21.6636C92.1387 20.5979 90.7961 20.0651 89.2424 20.0651C87.6887 20.0651 86.3461 20.5979 85.26 21.6636C84.1739 22.7293 83.6157 24.0385 83.6157 25.6218C83.6157 27.1899 84.1588 28.4991 85.26 29.58C86.3461 30.6457 87.6736 31.1785 89.2424 31.1785ZM86.7836 23.0946C87.4322 22.4248 88.2468 22.1051 89.2273 22.1051L89.2575 22.0899C90.238 22.0899 91.0375 22.4096 91.6862 23.0794C92.3348 23.7493 92.6516 24.5866 92.6516 25.6066C92.6516 26.6266 92.3348 27.4639 91.6862 28.1337C91.0375 28.8036 90.2229 29.1233 89.2424 29.1233C88.2468 29.1233 87.4322 28.8036 86.7836 28.149C86.1349 27.4943 85.8181 26.657 85.8181 25.6218C85.8181 24.6018 86.1349 23.7493 86.7836 23.0946Z" fill="white"/>
<path d="M63.5226 49.5537H65.6948V45.489H69.632V43.5099H65.6948V40.8457H70.4918V38.8666H63.5226V49.5537Z" fill="white"/>
<path d="M77.0387 38.6687C75.485 38.6687 74.1424 39.2015 73.0563 40.2672C71.9702 41.3328 71.412 42.6421 71.412 44.2254C71.412 45.7934 71.9551 47.1027 73.0563 48.1836C74.1424 49.2493 75.485 49.7821 77.0387 49.7821C78.5925 49.7821 79.935 49.2493 81.0362 48.1836C82.1374 47.1179 82.6956 45.8087 82.6956 44.2254C82.6956 42.6573 82.1525 41.3481 81.0362 40.2672C79.935 39.2015 78.5925 38.6687 77.0387 38.6687ZM79.4825 46.7373C78.8338 47.4072 78.0193 47.7269 77.0387 47.7269C76.0431 47.7269 75.2285 47.4072 74.5799 46.7526C73.9312 46.0979 73.6144 45.2606 73.6144 44.2254C73.6144 43.2054 73.9312 42.3681 74.5799 41.6982C75.2285 41.0284 76.0431 40.7087 77.0236 40.7087L77.0538 40.6934C78.0343 40.6934 78.8338 41.0131 79.4825 41.683C80.1311 42.3528 80.4479 43.1902 80.4479 44.2102C80.4479 45.2302 80.1161 46.0675 79.4825 46.7373Z" fill="white"/>
<path d="M91.8219 44.1188C92.1538 43.6012 92.3197 43.0075 92.3197 42.3224C92.3197 41.2872 91.9728 40.4651 91.2638 39.8257C90.5548 39.2015 89.6497 38.8818 88.5183 38.8818H84.5359V49.569H86.7081V45.7934H88.292L91.0375 49.569L93.4662 49.5385L90.4643 45.3215C91.0375 45.0475 91.49 44.6517 91.8219 44.1188ZM89.6798 43.4642C89.3932 43.7382 88.9859 43.8905 88.4881 43.8905H86.6779L86.693 40.8305H88.5032C89.001 40.8305 89.3781 40.9827 89.6798 41.2567C89.9665 41.5308 90.1173 41.9114 90.1173 42.3529C90.1173 42.8096 89.9815 43.1902 89.6798 43.4642Z" fill="white"/>
<path d="M101.19 45.2911C101.19 46.0675 100.979 46.6612 100.541 47.0875C100.104 47.5137 99.5454 47.7117 98.8515 47.7117C98.1576 47.7117 97.5995 47.4985 97.162 47.0875C96.7246 46.6612 96.4983 46.0675 96.4983 45.2911V38.8666H94.326V45.1388C94.326 46.5546 94.7484 47.666 95.5781 48.5033C96.4078 49.3406 97.4939 49.7669 98.8063 49.7669C100.119 49.7669 101.19 49.3406 102.034 48.5033C102.879 47.666 103.271 46.5394 103.286 45.1388L103.332 38.8666H101.16L101.19 45.2911Z" fill="white"/>
<path d="M110.889 44.469L106.409 38.6687H105.7V49.5537H107.872V43.8296L110.527 47.2245H111.236L113.906 43.8296V49.5537H116.079V38.6687H115.37L110.889 44.469Z" fill="white"/>
</svg>
